# xmcd
#
# Track frame offsets: 
#        150
#        20293
#        35893
#        55726
#        70951
#        91673
#        104286
#        115506
#        133341
#        153398
#        162577
#        176306
#
# Disc length: 2629 seconds
#
# Revision: 0
# Processed by: cddbd v1.5.2PL0 Copyright (c) Steve Scherf et al.
# Submitted via: ExactAudioCopyFreeDBPlugin 1.0
#
DISCID=980a430c
DTITLE=Brooks Williams - Baby O!
DYEAR=2010
DGENRE=Blues
TTITLE0=Frank Delandry
TTITLE1=Grinnin' In Your Face
TTITLE2=Walk You Off My Mind
TTITLE3=All Been Said
TTITLE4=Last Chance Love
TTITLE5=Baby-O
TTITLE6=Amazing Grace
TTITLE7=Louis Collins
TTITLE8=Moon On Down
TTITLE9=Devil's Punchbowl
TTITLE10=Sugar Sweet
TTITLE11=I Got It Bad (And That Ain't Good)
EXTD=
EXTT0=
EXTT1=
EXTT2=
EXTT3=
EXTT4=
EXTT5=
EXTT6=
EXTT7=
EXTT8=
EXTT9=
EXTT10=
EXTT11=
PLAYORDER=
